<svg width="620" height="200" viewBox="0 0 620 200" xmlns="http://www.w3.org/2000/svg" role="img" aria-labelledby="title desc">
  <title id="title">dbx-proxy logo</title>
  <defs>
    <linearGradient id="bg" x1="0" y1="0" x2="1" y2="1">
      <stop offset="0%" stop-color="#1F2937"/>
      <stop offset="100%" stop-color="#111827"/>
    </linearGradient>
    <linearGradient id="accent" x1="0" y1="0" x2="1" y2="1">
      <stop offset="0%" stop-color="#FF6B00"/>
      <stop offset="100%" stop-color="#E64A19"/>
    </linearGradient>
  </defs>

  <rect x="26" y="6" width="568" height="188" rx="24" fill="url(#bg)" stroke="#374151" stroke-width="2"/>

  <g transform="translate(65,46)">
    <rect x="0" y="22" width="108" height="64" rx="16" fill="#0B1220" stroke="#4B5563" stroke-width="2"/>
    <path d="M20 54h26m0 0l-8-8m8 8l-8 8" fill="none" stroke="#93C5FD" stroke-width="5" stroke-linecap="round" stroke-linejoin="round"/>
    <path d="M60 54h28m0 0l-8-8m8 8l-8 8" fill="none" stroke="#93C5FD" stroke-width="5" stroke-linecap="round" stroke-linejoin="round"/>
    <circle cx="124" cy="54" r="10" fill="url(#accent)"/>
    <path d="M134 54h26" fill="none" stroke="#F97316" stroke-width="5" stroke-linecap="round"/>
    <rect x="160" y="34" width="66" height="40" rx="10" fill="#0B1220" stroke="#4B5563" stroke-width="2"/>
    <rect x="170" y="44" width="46" height="20" rx="6" fill="#1F2937"/>
  </g>

  <text x="440" y="100" dominant-baseline="middle" text-anchor="middle" font-family="Avenir Next, Segoe UI, Helvetica Neue, Arial, sans-serif" font-size="48" font-weight="550" letter-spacing="0.6" fill="#F9FAFB">dbx-proxy</text>
</svg>
