<svg width="580" height="200" viewBox="0 0 580 200" xmlns="http://www.w3.org/2000/svg" role="img" aria-labelledby="title desc">
  <title id="title">dbx-proxy logo</title>
  <defs>
    <linearGradient id="bg" x1="0" y1="0" x2="1" y2="1">
      <stop offset="0%" stop-color="#3B3B3B"/>
      <stop offset="100%" stop-color="#1D1D1D"/>
    </linearGradient>
    <linearGradient id="accent" x1="0" y1="0" x2="1" y2="1">
      <stop offset="0%" stop-color="#FF3621"/>
      <stop offset="100%" stop-color="#C81E1E"/>
    </linearGradient>
  </defs>

  <rect x="0" y="0" width="580" height="200" rx="24" fill="url(#bg)" stroke="#3A2323" stroke-width="2"/>

  <g transform="translate(40,46)">
    <rect x="0" y="22" width="108" height="64" rx="16" fill="#171717" stroke="#5E2E2E" stroke-width="2"/>
    <path d="M20 54h26m0 0l-8-8m8 8l-8 8" fill="none" stroke="#FFB3AA" stroke-width="5" stroke-linecap="round" stroke-linejoin="round"/>
    <path d="M60 54h28m0 0l-8-8m8 8l-8 8" fill="none" stroke="#FFB3AA" stroke-width="5" stroke-linecap="round" stroke-linejoin="round"/>
    <circle cx="124" cy="54" r="10" fill="url(#accent)"/>
    <path d="M134 54h26" fill="none" stroke="#FF3621" stroke-width="5" stroke-linecap="round"/>
    <rect x="160" y="34" width="66" height="40" rx="10" fill="#171717" stroke="#5E2E2E" stroke-width="2"/>
    <rect x="170" y="44" width="46" height="20" rx="6" fill="#242424"/>
  </g>

  <text x="415" y="100" dominant-baseline="middle" text-anchor="middle" font-family="Avenir Next, Segoe UI, Helvetica Neue, Arial, sans-serif" font-size="48" font-weight="550" letter-spacing="0.6" fill="#F9FAFB">dbx-proxy</text>
</svg>
